<?xml version="1.0" encoding="utf-8"?>
<!-- Generator: Adobe Illustrator 21.0.2, SVG Export Plug-In . SVG Version: 6.00 Build 0)  -->
<svg version="1.1" xmlns="http://www.w3.org/2000/svg" xmlns:xlink="http://www.w3.org/1999/xlink" x="0px" y="0px"
	 viewBox="0 0 226.7 73.3" style="enable-background:new 0 0 226.7 73.3;" xml:space="preserve">
<style type="text/css">
	.st0{fill:#E9EAEA;}
	.st1{fill:#A9A8A9;}
	.st2{fill:#FF8300;}
</style>
<g>
	<g>
		<path class="st0" d="M43.2,4.1c0,1.5-0.5,2.9-1.4,4.1c6.3,1.1,11.9,4.3,16.1,8.7c2.5-1.3,5.4-2.2,8.4-2.5
			C60.4,6.7,51.7,1.4,41.8,0C42.7,1.1,43.2,2.5,43.2,4.1"/>
		<path class="st0" d="M4,29.6c1.6,0,3.1,0.6,4.3,1.6c2.2-11.8,11.6-21.1,23.5-23.1c-0.9-1.1-1.4-2.5-1.4-4s0.5-3,1.4-4.1
			C15.6,2.2,2.7,14.8,0.2,30.8C1.2,30,2.5,29.6,4,29.6"/>
		<path class="st0" d="M42,65.1c0.8,1.1,1.2,2.3,1.2,3.7c0,1.7-0.7,3.3-1.8,4.5C51.1,72,59.7,67,65.5,59.8c-3-0.4-5.8-1.3-8.3-2.7
			C53.2,61.1,47.9,64,42,65.1"/>
		<path class="st0" d="M30.3,68.8c0-1.4,0.4-2.7,1.2-3.7C19.4,62.9,9.9,53.2,8.1,41C7,41.9,5.6,42.5,4,42.5c-1.5,0-2.9-0.5-4-1.4
			c2,16.8,15.4,30.1,32.1,32.2C31,72.1,30.3,70.6,30.3,68.8"/>
		<path class="st1" d="M40.9,69c0,2.2-1.8,4-4,4s-4-1.8-4-4s1.8-4,4-4S40.9,66.8,40.9,69"/>
		<path class="st1" d="M73.7,37c0,2.2-1.8,4-4,4s-4-1.8-4-4s1.8-4,4-4C71.9,33,73.7,34.8,73.7,37"/>
		<path class="st1" d="M40.9,4.2c0,2.2-1.8,4-4,4s-4-1.8-4-4s1.8-4,4-4S40.9,2,40.9,4.2"/>
		<path class="st1" d="M8.1,36.2c0,2.2-1.8,4-4,4s-4-1.8-4-4s1.8-4,4-4S8.1,34,8.1,36.2"/>
		<path class="st2" d="M30.3,54.1c0-1.9,0.8-3.5,2-4.7c-5.3-1.8-9.1-6.8-9.1-12.8s4-11.1,9.4-12.9c-1.4-1.2-2.3-3-2.3-5
			c0-0.2,0-0.4,0-0.6c-7.6,2.6-13.1,9.9-13.1,18.4s5.5,15.8,13.2,18.4C30.3,54.7,30.3,54.4,30.3,54.1"/>
		<path class="st2" d="M47.3,28.3c0.8-2,1.9-3.8,3.2-5.4c-2-2.1-4.5-3.6-7.3-4.6c0,0.2,0,0.4,0,0.5c0,2-0.9,3.8-2.4,5
			C43.4,24.7,45.6,26.2,47.3,28.3"/>
		<path class="st2" d="M41.1,49.4c1.3,1.2,2.1,2.9,2.1,4.7c0,0.3,0,0.6-0.1,0.9c2.6-0.9,5-2.4,6.9-4.2c-1.2-1.7-2.3-3.5-3-5.5
			C45.5,47.1,43.5,48.5,41.1,49.4"/>
		<path class="st1" d="M40.9,54.2c0,2.2-1.8,4-4,4s-4-1.8-4-4s1.8-4,4-4S40.9,52,40.9,54.2"/>
		<path class="st1" d="M40.9,19c0,2.2-1.8,4-4,4s-4-1.8-4-4s1.8-4,4-4S40.9,16.8,40.9,19"/>
	</g>
	<g>
		<path class="st0" d="M77.7,21.3h8v31.9h-8v-3.4c-1.6,1.5-3.1,2.6-4.7,3.2s-3.3,1-5.1,1c-4.1,0-7.7-1.6-10.7-4.8s-4.5-7.2-4.5-11.9
			c0-4.9,1.5-9,4.4-12.1s6.4-4.7,10.6-4.7c1.9,0,3.7,0.4,5.4,1.1c1.7,0.7,3.2,1.8,4.7,3.3v-3.6C77.8,21.3,77.7,21.3,77.7,21.3z
			 M69.3,27.8c-2.5,0-4.5,0.9-6.2,2.6c-1.6,1.7-2.5,4-2.5,6.7c0,2.8,0.8,5,2.5,6.8s3.7,2.7,6.1,2.7c2.5,0,4.6-0.9,6.2-2.6
			c1.7-1.7,2.5-4,2.5-6.9c0-2.8-0.8-5-2.5-6.7C73.9,28.7,71.8,27.8,69.3,27.8z"/>
		<path class="st0" d="M91.9,21.3h6.9v4c0.7-1.6,1.7-2.8,3-3.6s2.6-1.2,4-1.2c1,0,2.1,0.3,3.3,0.8l-2.5,6.9
			c-0.9-0.5-1.7-0.7-2.3-0.7c-1.2,0-2.3,0.8-3.1,2.3s-1.3,4.5-1.3,9v1.6v12.9H92L91.9,21.3L91.9,21.3z"/>
	</g>
	<g>
		<path class="st0" d="M120.9,9v15.8c1.4-1.4,3-2.5,4.7-3.3c1.7-0.7,3.5-1.1,5.4-1.1c4.2,0,7.7,1.6,10.6,4.7
			c2.9,3.1,4.4,7.2,4.4,12.1c0,4.7-1.5,8.7-4.5,11.9s-6.6,4.8-10.7,4.8c-1.8,0-3.5-0.3-5.1-1s-3.2-1.7-4.7-3.2v3.4h-8V9H120.9z
			 M129.3,27.8c-2.5,0-4.6,0.9-6.3,2.6c-1.7,1.7-2.5,4-2.5,6.7c0,2.8,0.8,5.1,2.5,6.9c1.7,1.7,3.8,2.6,6.3,2.6
			c2.4,0,4.5-0.9,6.2-2.7s2.5-4,2.5-6.8c0-2.7-0.8-5-2.5-6.7C133.9,28.7,131.8,27.8,129.3,27.8z"/>
		<path class="st0" d="M166.1,20.5c3,0,5.8,0.8,8.5,2.3c2.6,1.5,4.7,3.5,6.2,6.1s2.2,5.4,2.2,8.3c0,3-0.7,5.8-2.2,8.4
			s-3.5,4.7-6.1,6.1s-5.4,2.2-8.5,2.2c-4.6,0-8.5-1.6-11.7-4.9s-4.8-7.2-4.8-11.9c0-5,1.8-9.1,5.5-12.5
			C158.2,21.9,161.9,20.5,166.1,20.5z M166.2,28c-2.5,0-4.6,0.9-6.2,2.6c-1.7,1.7-2.5,3.9-2.5,6.6c0,2.8,0.8,5,2.5,6.7
			c1.6,1.7,3.7,2.6,6.2,2.6s4.6-0.9,6.3-2.6c1.7-1.7,2.5-4,2.5-6.7s-0.8-5-2.5-6.7S168.7,28,166.2,28z"/>
		<path class="st0" d="M188,21.3h8v3.3c1.8-1.5,3.5-2.6,4.9-3.2c1.5-0.6,3-0.9,4.5-0.9c3.2,0,5.8,1.1,8,3.3c1.9,1.9,2.8,4.6,2.8,8.3
			v21.1h-7.9v-14c0-3.8-0.2-6.3-0.5-7.6c-0.3-1.2-0.9-2.2-1.8-2.9s-1.9-1-3.1-1c-1.6,0-3,0.5-4.2,1.6s-2,2.6-2.4,4.5
			c-0.2,1-0.4,3.2-0.4,6.5v12.8h-8L188,21.3L188,21.3z"/>
	</g>
	<g>
		<path class="st0" d="M72.4,60.7h0.9v7.8h3.3v0.8h-4.2C72.4,69.3,72.4,60.7,72.4,60.7z"/>
		<path class="st0" d="M78.1,60.7H79v8.6h-0.9V60.7z"/>
		<path class="st0" d="M81.2,69.3v-8.6h0.2l5.7,6.6v-6.6H88v8.6h-0.2l-5.7-6.5v6.5H81.2z"/>
		<path class="st0" d="M90.4,60.7h0.9v3.2l3.4-3.2h1.2l-4.1,3.9l4.5,4.8H95l-3.8-4v4h-0.9v-8.7H90.4z"/>
		<path class="st0" d="M97.8,60.7h4.9v0.8h-4.1v2.7h4V65h-4v3.4h4v0.8h-4.9L97.8,60.7L97.8,60.7z"/>
		<path class="st0" d="M104.5,69.3v-8.6h1.8c1.3,0,2.2,0.1,2.8,0.3c0.8,0.3,1.5,0.8,2,1.5s0.7,1.6,0.7,2.6c0,0.9-0.2,1.6-0.6,2.3
			s-0.9,1.1-1.5,1.5s-1.4,0.5-2.5,0.5h-2.7C104.5,69.4,104.5,69.3,104.5,69.3z M105.3,68.5h1c1.2,0,2-0.1,2.5-0.2
			c0.6-0.2,1.2-0.6,1.5-1.1c0.4-0.5,0.6-1.2,0.6-2s-0.2-1.5-0.6-2.1s-1-1-1.7-1.2c-0.5-0.2-1.4-0.2-2.7-0.2h-0.6
			C105.3,61.7,105.3,68.5,105.3,68.5z"/>
		<path class="st0" d="M117.4,69.3v-8.6h1.8c1.3,0,2.2,0.1,2.8,0.3c0.8,0.3,1.5,0.8,2,1.5s0.7,1.6,0.7,2.6c0,0.9-0.2,1.6-0.6,2.3
			s-0.9,1.1-1.5,1.5s-1.4,0.5-2.5,0.5h-2.7C117.4,69.4,117.4,69.3,117.4,69.3z M118.2,68.5h1c1.2,0,2-0.1,2.5-0.2
			c0.6-0.2,1.2-0.6,1.5-1.1c0.4-0.5,0.6-1.2,0.6-2s-0.2-1.5-0.6-2.1s-1-1-1.7-1.2c-0.5-0.2-1.4-0.2-2.7-0.2h-0.6
			C118.2,61.7,118.2,68.5,118.2,68.5z"/>
		<path class="st0" d="M130.1,60.7l4,8.6h-0.9l-1.4-2.8h-3.7l-1.3,2.8h-1l4.1-8.6C129.9,60.7,130.1,60.7,130.1,60.7z M130,62.5
			l-1.5,3.1h2.9L130,62.5z"/>
		<path class="st0" d="M134.9,61.5v-0.8h4.7v0.8h-1.9v7.8h-0.9v-7.8C136.8,61.5,134.9,61.5,134.9,61.5z"/>
		<path class="st0" d="M144.7,60.7l4,8.6h-0.9l-1.4-2.8h-3.7l-1.3,2.8h-1l4.1-8.6C144.5,60.7,144.7,60.7,144.7,60.7z M144.6,62.5
			l-1.5,3.1h2.9L144.6,62.5z"/>
		<path class="st0" d="M154,60.7h1.7c1,0,1.6,0,2,0.1c0.5,0.1,0.9,0.4,1.2,0.7s0.5,0.9,0.5,1.4c0,0.6-0.2,1-0.5,1.4
			s-0.7,0.6-1.3,0.8c-0.4,0.1-1.1,0.1-2.2,0.1h-0.6v4H154V60.7z M154.8,61.5v2.9h1.5c0.6,0,1-0.1,1.3-0.2s0.5-0.3,0.6-0.5
			c0.2-0.2,0.2-0.5,0.2-0.8s-0.1-0.6-0.2-0.8c-0.2-0.2-0.4-0.4-0.6-0.5s-0.7-0.2-1.3-0.2L154.8,61.5L154.8,61.5z"/>
		<path class="st0" d="M161.4,60.7h0.9v7.8h3.3v0.8h-4.2V60.7z"/>
		<path class="st0" d="M170.7,60.7l4,8.6h-0.9l-1.4-2.8h-3.7l-1.3,2.8h-1l4.1-8.6C170.5,60.7,170.7,60.7,170.7,60.7z M170.6,62.5
			l-1.5,3.1h2.9L170.6,62.5z"/>
		<path class="st0" d="M175.5,61.5v-0.8h4.7v0.8h-1.9v7.8h-0.9v-7.8C177.4,61.5,175.5,61.5,175.5,61.5z"/>
		<path class="st0" d="M181.8,60.7h4.3v0.8h-3.5v2.7h3.5V65h-3.5v4.2h-0.9L181.8,60.7L181.8,60.7z"/>
		<path class="st0" d="M192,60.5c1.3,0,2.4,0.4,3.3,1.3s1.3,1.9,1.3,3.2c0,1.3-0.4,2.3-1.3,3.2s-1.9,1.3-3.2,1.3s-2.4-0.4-3.2-1.3
			c-0.9-0.9-1.3-1.9-1.3-3.2c0-0.8,0.2-1.6,0.6-2.3c0.4-0.7,0.9-1.3,1.6-1.7C190.5,60.7,191.2,60.5,192,60.5z M192.1,61.3
			c-0.6,0-1.2,0.2-1.8,0.5s-1,0.8-1.3,1.3c-0.3,0.6-0.5,1.2-0.5,1.9c0,1,0.4,1.9,1.1,2.6c0.7,0.7,1.6,1.1,2.6,1.1
			c0.7,0,1.3-0.2,1.9-0.5c0.6-0.3,1-0.8,1.3-1.3c0.3-0.6,0.5-1.2,0.5-1.9c0-0.7-0.2-1.3-0.5-1.9c-0.3-0.6-0.8-1-1.3-1.3
			C193.3,61.5,192.7,61.3,192.1,61.3z"/>
		<path class="st0" d="M198.7,60.7h1.7c1,0,1.6,0,1.9,0.1c0.5,0.1,0.9,0.4,1.2,0.8c0.3,0.4,0.5,0.9,0.5,1.4s-0.1,0.9-0.3,1.2
			c-0.2,0.4-0.5,0.6-0.9,0.8c-0.4,0.2-1,0.3-1.7,0.3l3.1,4h-1.1l-3.1-4h-0.5v4h-0.9v-8.6C198.6,60.7,198.7,60.7,198.7,60.7z
			 M199.6,61.5v2.9h1.5c0.6,0,1-0.1,1.3-0.2s0.5-0.3,0.6-0.5c0.2-0.2,0.2-0.5,0.2-0.8s-0.1-0.6-0.2-0.8c-0.2-0.2-0.4-0.4-0.6-0.5
			c-0.3-0.1-0.7-0.2-1.3-0.2L199.6,61.5L199.6,61.5z"/>
		<path class="st0" d="M205.8,69.3l1.2-8.6h0.1l3.5,7.1l3.5-7.1h0.1l1.2,8.6h-0.8l-0.9-6.2l-3,6.2h-0.2l-3.1-6.2l-0.8,6.2H205.8z"/>
	</g>
	<g>
		<path class="st0" d="M220.2,49.9v-0.4h2v0.4h-0.8v3.2H221v-3.2H220.2z"/>
		<path class="st0" d="M222.7,53.2l0.5-3.6h0.1l1.5,2.9l1.4-2.9h0.1l0.5,3.6h-0.4l-0.4-2.6l-1.3,2.6h-0.1l-1.3-2.6l-0.4,2.6H222.7z"
			/>
	</g>
</g>
</svg>
