<svg xmlns="http://www.w3.org/2000/svg" viewBox="0 0 73.66 73.31"><defs>
    <style>.iconCarbonSVG1{fill:#0082ca;}.iconCarbonSVG2{fill:#a9a8a9;}.iconCarbonSVG3{fill:#ff8300;}</style></defs><title>Asset 1</title><g id="Layer_2" data-name="Layer 2"><g id="Layer_1-2" data-name="Layer 1"><path class="iconCarbonSVG1" d="M4,29.59a6.42,6.42,0,0,1,4.27,1.63A29,29,0,0,1,31.73,8.09a6.44,6.44,0,0,1,0-8.09A37,37,0,0,0,.18,30.82,6.41,6.41,0,0,1,4,29.59Z"/><path class="iconCarbonSVG1" d="M43.21,4.06a6.42,6.42,0,0,1-1.44,4.06A29,29,0,0,1,65.31,32.17a6.43,6.43,0,0,1,8-.73A37,37,0,0,0,41.79,0,6.42,6.42,0,0,1,43.21,4.06Z"/><path class="iconCarbonSVG1" d="M69.76,43.29a6.43,6.43,0,0,1-4.51-1.84A29,29,0,0,1,42,65.1a6.43,6.43,0,0,1-.59,8.18,37,37,0,0,0,31.8-31A6.41,6.41,0,0,1,69.76,43.29Z"/><path class="iconCarbonSVG1" d="M30.31,68.84a6.41,6.41,0,0,1,1.18-3.71A29,29,0,0,1,8.05,41a6.44,6.44,0,0,1-8.05.1A37,37,0,0,0,32.11,73.31,6.43,6.43,0,0,1,30.31,68.84Z"/><circle class="iconCarbonSVG2" cx="36.9" cy="68.98" r="3.96"/><circle class="iconCarbonSVG2" cx="69.7" cy="37" r="3.96"/><circle class="iconCarbonSVG2" cx="36.9" cy="4.2" r="3.96"/><circle class="iconCarbonSVG2" cx="4.1" cy="36.18" r="3.96"/><path class="iconCarbonSVG3" d="M30.31,54.08a6.43,6.43,0,0,1,2-4.69,13.48,13.48,0,0,1,.28-25.61,6.43,6.43,0,0,1-2.32-5c0-.2,0-.4,0-.59a19.46,19.46,0,0,0,.05,36.82A6.46,6.46,0,0,1,30.31,54.08Z"/><path class="iconCarbonSVG3" d="M43.19,18.28c0,.18,0,.36,0,.54a6.43,6.43,0,0,1-2.36,5,13.47,13.47,0,0,1,.29,25.54,6.43,6.43,0,0,1,2.08,4.73,6.58,6.58,0,0,1-.07.92,19.45,19.45,0,0,0,0-36.71Z"/><circle class="iconCarbonSVG2" cx="36.9" cy="54.22" r="3.96"/><circle class="iconCarbonSVG2" cx="36.9" cy="18.96" r="3.96"/></g></g></svg>