<?xml version="1.0" encoding="utf-8"?>
<!-- Generator: Adobe Illustrator 21.0.2, SVG Export Plug-In . SVG Version: 6.00 Build 0)  -->
<svg id="Layer_1" xmlns="http://www.w3.org/2000/svg" viewBox="0 0 226.7 73.3">
	<style>.carbonLogo0{fill:#0091CF } .carbonLogo1{fill:#A9A8A9;} .carbonLogo2{fill:#FF8300;}</style>
	<path class="carbonLogo0" d="M43.2 4.1c0 1.5-.5 2.9-1.4 4.1 6.3 1.1 11.9 4.3 16.1 8.7 2.5-1.3 5.4-2.2 8.4-2.5C60.4 6.7 51.7 1.4 41.8 0c.9 1.1 1.4 2.5 1.4 4.1M4 29.6c1.6 0 3.1.6 4.3 1.6 2.2-11.8 11.6-21.1 23.5-23.1-.9-1.1-1.4-2.5-1.4-4s.5-3 1.4-4.1C15.6 2.2 2.7 14.8.2 30.8c1-.8 2.3-1.2 3.8-1.2M42 65.1c.8 1.1 1.2 2.3 1.2 3.7 0 1.7-.7 3.3-1.8 4.5C51.1 72 59.7 67 65.5 59.8c-3-.4-5.8-1.3-8.3-2.7-4 4-9.3 6.9-15.2 8M30.3 68.8c0-1.4.4-2.7 1.2-3.7C19.4 62.9 9.9 53.2 8.1 41c-1.1.9-2.5 1.5-4.1 1.5-1.5 0-2.9-.5-4-1.4 2 16.8 15.4 30.1 32.1 32.2-1.1-1.2-1.8-2.7-1.8-4.5"/>
	<path class="carbonLogo1" d="M40.9 69c0 2.2-1.8 4-4 4s-4-1.8-4-4 1.8-4 4-4 4 1.8 4 4M73.7 37c0 2.2-1.8 4-4 4s-4-1.8-4-4 1.8-4 4-4 4 1.8 4 4M40.9 4.2c0 2.2-1.8 4-4 4s-4-1.8-4-4 1.8-4 4-4 4 1.8 4 4M8.1 36.2c0 2.2-1.8 4-4 4s-4-1.8-4-4 1.8-4 4-4 4 1.8 4 4"/>
	<path class="carbonLogo2" d="M30.3 54.1c0-1.9.8-3.5 2-4.7-5.3-1.8-9.1-6.8-9.1-12.8s4-11.1 9.4-12.9c-1.4-1.2-2.3-3-2.3-5v-.6c-7.6 2.6-13.1 9.9-13.1 18.4s5.5 15.8 13.2 18.4c-.1-.2-.1-.5-.1-.8M47.3 28.3c.8-2 1.9-3.8 3.2-5.4-2-2.1-4.5-3.6-7.3-4.6v.5c0 2-.9 3.8-2.4 5 2.6.9 4.8 2.4 6.5 4.5M41.1 49.4c1.3 1.2 2.1 2.9 2.1 4.7 0 .3 0 .6-.1.9 2.6-.9 5-2.4 6.9-4.2-1.2-1.7-2.3-3.5-3-5.5-1.5 1.8-3.5 3.2-5.9 4.1"/>
	<path class="carbonLogo1" d="M40.9 54.2c0 2.2-1.8 4-4 4s-4-1.8-4-4 1.8-4 4-4 4 1.8 4 4M40.9 19c0 2.2-1.8 4-4 4s-4-1.8-4-4 1.8-4 4-4 4 1.8 4 4"/>
	<g>
		<path class="carbonLogo0" d="M77.7 21.3h8v31.9h-8v-3.4c-1.6 1.5-3.1 2.6-4.7 3.2s-3.3 1-5.1 1c-4.1 0-7.7-1.6-10.7-4.8s-4.5-7.2-4.5-11.9c0-4.9 1.5-9 4.4-12.1s6.4-4.7 10.6-4.7c1.9 0 3.7.4 5.4 1.1 1.7.7 3.2 1.8 4.7 3.3v-3.6h-.1zm-8.4 6.5c-2.5 0-4.5.9-6.2 2.6-1.6 1.7-2.5 4-2.5 6.7 0 2.8.8 5 2.5 6.8s3.7 2.7 6.1 2.7c2.5 0 4.6-.9 6.2-2.6 1.7-1.7 2.5-4 2.5-6.9 0-2.8-.8-5-2.5-6.7-1.5-1.7-3.6-2.6-6.1-2.6zM91.9 21.3h6.9v4c.7-1.6 1.7-2.8 3-3.6s2.6-1.2 4-1.2c1 0 2.1.3 3.3.8l-2.5 6.9c-.9-.5-1.7-.7-2.3-.7-1.2 0-2.3.8-3.1 2.3s-1.3 4.5-1.3 9v14.5H92l-.1-32z"/>
	</g>
	<g>
		<path class="carbonLogo0" d="M120.9 9v15.8c1.4-1.4 3-2.5 4.7-3.3 1.7-.7 3.5-1.1 5.4-1.1 4.2 0 7.7 1.6 10.6 4.7 2.9 3.1 4.4 7.2 4.4 12.1 0 4.7-1.5 8.7-4.5 11.9s-6.6 4.8-10.7 4.8c-1.8 0-3.5-.3-5.1-1s-3.2-1.7-4.7-3.2v3.4h-8V9h7.9zm8.4 18.8c-2.5 0-4.6.9-6.3 2.6-1.7 1.7-2.5 4-2.5 6.7 0 2.8.8 5.1 2.5 6.9 1.7 1.7 3.8 2.6 6.3 2.6 2.4 0 4.5-.9 6.2-2.7s2.5-4 2.5-6.8c0-2.7-.8-5-2.5-6.7-1.6-1.7-3.7-2.6-6.2-2.6zM166.1 20.5c3 0 5.8.8 8.5 2.3 2.6 1.5 4.7 3.5 6.2 6.1s2.2 5.4 2.2 8.3c0 3-.7 5.8-2.2 8.4s-3.5 4.7-6.1 6.1-5.4 2.2-8.5 2.2c-4.6 0-8.5-1.6-11.7-4.9s-4.8-7.2-4.8-11.9c0-5 1.8-9.1 5.5-12.5 3-2.7 6.7-4.1 10.9-4.1zm.1 7.5c-2.5 0-4.6.9-6.2 2.6-1.7 1.7-2.5 3.9-2.5 6.6 0 2.8.8 5 2.5 6.7 1.6 1.7 3.7 2.6 6.2 2.6s4.6-.9 6.3-2.6c1.7-1.7 2.5-4 2.5-6.7s-.8-5-2.5-6.7-3.8-2.5-6.3-2.5zM188 21.3h8v3.3c1.8-1.5 3.5-2.6 4.9-3.2 1.5-.6 3-.9 4.5-.9 3.2 0 5.8 1.1 8 3.3 1.9 1.9 2.8 4.6 2.8 8.3v21.1h-7.9v-14c0-3.8-.2-6.3-.5-7.6-.3-1.2-.9-2.2-1.8-2.9s-1.9-1-3.1-1c-1.6 0-3 .5-4.2 1.6s-2 2.6-2.4 4.5c-.2 1-.4 3.2-.4 6.5v12.8h-8l.1-31.8z"/>
	</g>
	<g>
		<path class="carbonLogo1" d="M220.2 49.9v-.4h2v.4h-.8v3.2h-.4v-3.2h-.8zM222.7 53.2l.5-3.6h.1l1.5 2.9 1.4-2.9h.1l.5 3.6h-.4l-.4-2.6-1.3 2.6h-.1l-1.3-2.6-.4 2.6h-.2z"/>
	</g>
</svg>
