<svg id="Layer_1" xmlns="http://www.w3.org/2000/svg" viewBox="0 0 300 300">
    <style>.iconJavaScriptSVG0{fill:#7C8288;} .iconJavaScriptSVG1{fill:#A8AAAE;}</style>
    <title>Group</title>
    <path class="iconJavaScriptSVG0" d="M62.2 66l16.1 175.9 72.3 19.1 73-20.7L239 66H62.2zm143 79.2l-.9 50.1-50.5 5v-18.4h34.5v-18.4h-34.5v-55l50.5 4.8.9 13.7H171v18.4l34.2-.2zm-63 55.2L87.8 193v-21.7h18.1v9.6H124v-72.4h18.1l.1 91.9z"/>
    <path class="iconJavaScriptSVG1" d="M148.1 79.6v163.2l59.4-16.6 12.7-146.6h-72.1zm57.1 65.6l-.9 50.1-50.5 5v-18.4h34.5v-18.4h-34.5v-55l50.5 4.8.9 13.7H171v18.4l34.2-.2z"/>
</svg>