<svg xmlns="http://www.w3.org/2000/svg" viewBox="0 0 300 300">
    <style>.iconOpenBookSVG{fill:#7C8389;}</style>
    <path class="iconOpenBookSVG"
          d="M89.4 172.7l-8-1.6c-.7-.1-1.4-.7-1.7-1.4l-12.3-28.4c-.6-1.3 0-2.9 1.3-3.4l5.4-2c.6-.2.8-1 .4-1.5L66 123.9c-.3-.3-.7-.4-1.1-.3l-10.3 3.9c-1 .4-1.9.9-2.6 1.7-2.2 2.3-2.7 5.7-1.5 8.5l18.6 43c.9 2.2 2.8 3.7 5 4.2l14.9 3c.6.1 1.1-.3 1.1-.9-.1-3-.1-10.7-.1-13.2.1-.6-.2-1-.6-1.1zm158.5-43.5c-.7-.8-1.7-1.3-2.6-1.7l-10.3-3.9c-.4-.1-.8 0-1.1.3l-8.5 10.5c-.4.5-.2 1.2.4 1.5l5.4 2c1.3.5 1.9 2.1 1.3 3.4l-12.3 28.4c-.3.7-.9 1.3-1.7 1.4l-8 1.6c-.4.1-.8.5-.8.9 0 2.5-.1 10.2-.1 13.2 0 .6.5 1.1 1.1.9l14.9-3c2.2-.4 4.1-2 5-4.2l18.6-43c1.4-2.6.9-6-1.3-8.3zM124.7 84.4c.7.7 1.6 1.1 2.6 1.1h45.4c1 0 1.9-.4 2.6-1.1l4.7-4.6c1.3-1.3 1.5-3.2.5-4.7l-5.8-8.9c-.7-1.1-1.9-1.7-3.1-1.7h-43.2c-1.3 0-2.4.6-3.1 1.7l-5.8 8.9c-1 1.5-.8 3.5.5 4.7l4.7 4.6zM120 219.1c-.3 0-.7 0-1-.1v9c0 4.1 3.1 7.4 6.9 7.4h48.3c3.8 0 6.9-3.3 6.9-7.4v-9c-.3 0-.7.1-1 .1H120zM70.8 118.3c.8 1 2.2 1.1 3.1.3l38-33.3c1-.8 1-2.3.1-3.2l-7.1-7c-.8-.8-1.8-1.2-2.8-1.2-.9 0-1.9.3-2.6 1l-33.9 29.8c-.9.8-1.4 1.9-1.5 3.1-.1 1.2.3 2.4 1 3.3l5.7 7.2zm155.2.3c.9.8 2.4.7 3.1-.3l5.8-7.2c.7-.9 1.1-2.1 1-3.3-.1-1.2-.6-2.3-1.5-3.1L200.5 75c-.8-.7-1.7-1-2.6-1-1 0-2 .4-2.8 1.2l-7.1 7c-.9.9-.9 2.4.1 3.2l37.9 33.2zm-4.1 8.8c.7-.9.6-2.3-.3-3.1l-39-34.2c-.9-.8-2.2-.7-3 .1l-2.1 2.1c-.4.4-1 .6-1.5.6h-52c-.6 0-1.1-.2-1.5-.6l-2.1-2.1c-.8-.8-2.1-.8-3-.1l-39 34.2c-.9.8-1 2.1-.3 3.1l19 23.5v33.8c0 11.5 8.1 20.9 18.5 22.2l.6 1.9c.6 1.8 2.1 3 3.9 3h60c1.8 0 3.3-1.2 3.9-3l.6-1.9c10.4-1.2 18.5-10.7 18.5-22.2v-33.8l18.8-23.5zm-22.8 9.8l-29.3 41.1c0 4-1.2 8.1-3.7 11.6-3.1 4.3-7.7 7.2-12.9 8.1-1.1.2-2.2.3-3.3.3-1.1 0-2.2-.1-3.3-.3-2.8-.3-5.4-1.3-7.5-3-.2-.2-.5-.3-.7-.5-4.3-3.1-7.2-7.7-8.1-12.9-.1-.7-.2-1.3-.2-2l-20.2-44.3c-5.7-5.8-6.6-15-1.7-21.9 4.9-6.8 13.9-9 21.2-5.5l59 5.7c1.6.2 3.1.6 4.5 1.2 1.3.4 2.6 1 3.7 1.8 3.7 2.6 5.5 6.9 5.3 11.1.1 3.4-.8 6.7-2.8 9.5z"/>
    <path class="iconOpenBookSVG" d="M176.7 129.1c-.5-3.3.2-6.5 2.1-9.3l-41.5-4c2.7 5.5 2.4 12.2-1.4 17.4-3.3 4.7-8.6 7.1-13.9 7.1-.7 0-1.4-.1-2.1-.1l12.8 28.1c.3-.6.7-1.1 1-1.6 6.4-8.9 18.8-11 27.8-4.7 2.7 1.9 4.7 4.4 6.1 7.1l21.1-29.6c-2.4-.1-4.8-.8-6.9-2.3-2.7-1.9-4.5-4.8-5.1-8.1z"/>
    <path class="iconOpenBookSVG" d="M157.5 167.8c-2.3-1.6-4.9-2.4-7.5-2.4-4 0-8 1.9-10.5 5.4-2 2.8-2.8 6.2-2.2 9.6.6 3.4 2.4 6.4 5.2 8.4 2.8 2 6.2 2.8 9.6 2.2 3.4-.6 6.4-2.4 8.4-5.2 4.1-5.8 2.8-13.9-3-18zm-27.3-38.6c3.2-4.5 2.2-10.8-2.3-14-1.8-1.3-3.8-1.9-5.8-1.9-3.1 0-6.2 1.5-8.2 4.2-3.2 4.5-2.2 10.8 2.3 14 4.5 3.2 10.8 2.2 14-2.3zm62.3-6.8c-1-.7-2.1-1-3.3-1-1.8 0-3.5.8-4.6 2.4-.9 1.2-1.2 2.7-1 4.2.2 1.5 1.1 2.8 2.3 3.7 2.5 1.8 6 1.2 7.9-1.3 1.8-2.7 1.2-6.2-1.3-8z"/>
</svg>