<svg xmlns="http://www.w3.org/2000/svg" viewBox="0 0 300 300">
    <style>.w3c0{fill:#A8AAAE;} .st1{fill:#7C8288;}</style>
    <title>Group 13</title>
    <path class="w3c0" d="M159.9 138.4l17.4-30.2v-5.4h-45.8l-17.2 57.8-17.1-58.1H85l5.8 19-11.5 38.9-17.2-58-12.1.4 28.1 94.6h1l17.6-58.6 17.6 58.6h1.2l24.5-83.3h20.3L144 142.8v5.4h3.8s18.8-1.3 17.6 19.4c-1.1 18.4-10.8 18.8-13.1 18.4-4.2-.8-9.1-3.2-12.3-11.7l-9.6 4.2s5.8 18.2 22.4 18.9c18 .7 23.6-14.9 25-24.1 1.8-12.2-2.1-30.6-17.9-34.9z"/>
    <path class="w3c1" d="M226.7 170.8c-7.4 14-17.6 19.3-28.4 16.8-10.8-2.6-18.6-18.3-18.6-18.3 7.7 24.7 21.9 30.8 32.3 26.9 10.4-3.9 16.5-16 16.5-16l-1.8-9.4zM198.8 118.5c13.3-9.3 22.1 9.2 22.1 9.2l7-13.4-2.1-11.8-7 13.5c-13.8-23.4-28.4-9.4-33.3 8.5-4.9 17.8 2.6 32.3 2.6 32.3-1.3-4.6-2.6-29 10.7-38.3z"/>
    <g>
        <path class="w3c0" d="M242.7 112.7c-.2-.2-.5-.4-.8-.5.8-.1 1.5-.4 2-.9s.7-1.1.7-1.8c0-.5-.1-1-.4-1.4-.3-.4-.7-.7-1.2-.9-.5-.2-1.3-.3-2.4-.3h-3.3v9.6h1.5v-4.1h.9c.5 0 1 .1 1.2.3.4.3.9 1 1.6 2.2l.8 1.5h1.9l-1.2-1.9c-.5-.8-.9-1.4-1.3-1.8zm-2.1-1.6h-1.9v-2.9h1.8c.8 0 1.3.1 1.5.2.3.1.5.3.7.5.2.2.2.5.2.8 0 .4-.2.8-.5 1.1-.3.1-.9.3-1.8.3z"/>
        <path class="w3c0" d="M248.8 107.1c-.8-1.4-1.9-2.5-3.3-3.3-1.4-.8-2.9-1.1-4.4-1.1s-2.9.4-4.4 1.1c-1.4.8-2.5 1.9-3.3 3.3-.8 1.4-1.2 2.9-1.2 4.5 0 1.5.4 3 1.2 4.4.8 1.4 1.9 2.5 3.3 3.3 1.4.8 2.9 1.2 4.4 1.2s3-.4 4.4-1.2c1.4-.8 2.5-1.9 3.3-3.3.8-1.4 1.2-2.9 1.2-4.4 0-1.6-.4-3.1-1.2-4.5zm-1.2 8.1c-.7 1.2-1.6 2.1-2.7 2.7-1.2.7-2.4 1-3.7 1s-2.5-.3-3.7-1c-1.2-.7-2.1-1.6-2.7-2.7-.7-1.2-1-2.4-1-3.7 0-1.3.3-2.5 1-3.7.7-1.2 1.6-2.1 2.8-2.7 1.2-.6 2.4-1 3.6-1 1.2 0 2.5.3 3.6 1s2.1 1.6 2.8 2.7c.7 1.2 1 2.4 1 3.7-.1 1.3-.4 2.6-1 3.7z"/>
    </g>
</svg>