<svg xmlns="http://www.w3.org/2000/svg" viewBox="0 0 300 300">
    <style>.iconRdfSVG0{fill:#7C8288;}</style>
    <title>carbon-icons</title>
    <path class="iconRdfSVG0" d="M210.4 179.8c-19.5-24.5-5.7-56 1-68.3 11.1-6.9 18.5-19.2 18.5-33.2 0-21.6-17.5-39.1-39.1-39.1s-39.1 17.5-39.1 39.1c0 .8 0 1.7.1 2.5-8.6 31.4-41.5 37.4-57.9 38.4-6-3.7-13.1-5.9-20.7-5.9-21.6 0-39.1 17.5-39.1 39.1s17.5 39.1 39.1 39.1c10.5 0 20-4.1 27-10.8 31 3.2 48.6 20.1 56 29.2-.3 1.9-.5 3.9-.5 5.9 0 21.6 17.5 39.1 39.1 39.1s39.1-17.5 39.1-39.1c.1-16.2-9.6-30-23.5-36zm-124-55.4c-8.7-2-17.8-.6-25.4 4.1 3.3 3.3 3.4 8.6.3 12-3.2 3.6-8.8 4-12.4.7-4.6 8.5-5.3 18.7-2 27.8-6.3-7.2-8.8-17-6.6-26.3 3.8-16.2 20.5-26.2 37.3-22.3 3.6.8 7 2.3 10 4.3l-1.2-.3zm72-57.5c4.8-15.9 22-24.9 38.5-20 3.5 1 6.8 2.7 9.8 4.8-.4-.1-.8-.3-1.2-.4-8.5-2.5-17.7-1.6-25.6 2.6 2.9 3.4 2.7 8.5-.4 11.7-3.4 3.5-8.9 3.6-12.4.3-5.1 8.2-6.4 18.3-3.7 27.6-5.8-7.5-7.6-17.4-5-26.6zm-46.2 87.7c0-.8.1-1.5.1-2.3 0-3.6-.5-7-1.4-10.3 20.6-26.6 46.6-31.5 56.4-32.4 4 3 8.6 5.2 13.6 6.5 11.8 27.8 6.3 50.9 1.9 62.4-4.5 1.4-8.5 3.6-12.1 6.5-29 5.7-49.5-17.5-58.5-30.4zm100.1 35.3c-8.5-2.7-17.7-1.8-25.6 2.3 3.3 3.6 3 9.2-.6 12.4-3.6 3.3-9.1 3-12.4-.6-5.2 8.2-6.7 18.2-4 27.5-4.9-6.4-6.9-14.5-5.7-22.3.2-1.5.6-2.9 1-4.4 1.7-5.4 4.8-10 8.8-13.4 2.4-2.1 5.2-3.8 8.2-5.1 6.6-2.8 14.3-3.3 21.8-1 1 .3 1.9.7 2.8 1 2.4 1 4.8 2.3 6.9 3.9-.4 0-.8-.2-1.2-.3z"/>
</svg>