<svg xmlns="http://www.w3.org/2000/svg" viewBox="0 0 300 300">
    <style>.iconRestApiSVG0{fill:#7C8288;}</style>
    <title>carbon-icons</title>
    <path class="iconRestApiSVG0" d="M257 180c0 11.6-9.6 21-21.5 21-.4 0-1.1-.1-1.5-.1h-74v-33.5h3.1l8.9 8.7c2.5 2.5 6.8 2.5 9.3 0l1.2-1.1c2.5-2.5 2.5-6.7 0-9.1l-23.7-23.3-.3-.3c-2.4-2.7-6.6-2.9-9.3-.5l-27.3 23.7c-2.8 2.4-3 6.4-.5 9.1l1.3 1.4c2.4 2.7 6.6 2.9 9.3.5l10.5-9h1.7V201H81.8v-.1c-20.5-.7-36.9-15.8-36.9-34.3 0-18.9 17-34.3 38.2-34.3 1.5 0 2.9.1 4.3.2 2.3-21 18.5-37.8 39.8-41.3 26-4.2 50.6 13.2 54.8 38.7 4.6-2.4 9.5-3.8 14.6-4.2 20.1-1.5 37.6 13.4 39.1 33.2 11.8.1 21.3 9.5 21.3 21.1z"/>
</svg>