<svg xmlns="http://www.w3.org/2000/svg" viewBox="0 0 300 300">
    <style>.iconSecuritySVG0{fill:#7C8288;}</style>
    <title>carbon-icons</title>
    <path class="iconSecuritySVG0" d="M150 45.9c-30.4 0-55.1 24.2-55.3 54v11.6h18.7V99.9c.1-19.7 16.5-35.7 36.6-35.7s36.5 16 36.6 35.7v11.6h18.7V99.8c-.2-29.8-24.9-53.9-55.3-53.9zM211.2 117.5H88.8c-7.4-.1-13.5 5.8-13.7 13.3v101.8c.1 7.4 6.2 13.4 13.6 13.3H211.1c7.4.1 13.5-5.8 13.7-13.3V130.8c-.1-7.4-6.1-13.4-13.6-13.3zm-45.1 55.1c0 6.1-3.7 11.7-9.3 14.2v13.1c0 3.8-3 6.8-6.8 6.8s-6.8-3-6.8-6.8v-13c-5.6-2.5-9.2-8.1-9.3-14.2 0-8.8 7.2-15.9 16-15.9 8.8-.1 16 6.9 16.1 15.7v.1z"/>
</svg>