<svg id="query" xmlns="http://www.w3.org/2000/svg" viewBox="0 0 300 300">
    <style>.query0{fill:#7C8288;}</style>
    <title>carbon-icons</title>
    <path class="query0" d="M131.2 113.8c-16.5 0-29.9 13.4-29.9 29.9s13.4 29.9 29.9 29.9 29.9-13.4 29.9-29.9-13.4-29.9-29.9-29.9zm0 46.9c-9.3 0-16.9-7.6-16.9-16.9 0-9.3 7.6-16.9 16.9-16.9s16.9 7.6 16.9 16.9c0 9.3-7.6 16.9-16.9 16.9zM217.4 204.4c-6.3 0-12 2.4-16.4 6.3l-45.4-45.4-3.3 3.3 45.5 45.5c-3.1 4.1-5 9.2-5 14.8 0 13.5 11 24.5 24.5 24.5s24.5-11 24.5-24.5c.1-13.5-10.9-24.5-24.4-24.5zM182.2 141.4H163v4.8h19.2c1.2 8.1 8.1 14.4 16.5 14.4 9.2 0 16.7-7.5 16.7-16.7s-7.5-16.7-16.7-16.7c-8.4-.2-15.4 6.1-16.5 14.2z"/>
    <path class="query0" d="M80.1 108.8c2.9 0 5.5-.9 7.7-2.4l18.6 17 3.2-3.5L91.3 103c1.6-2.2 2.5-4.9 2.5-7.9 0-7.5-6.1-13.6-13.6-13.6s-13.6 6.1-13.6 13.6 6 13.7 13.5 13.7zM105.8 165.1l-17.1 17.1c-3.1-2.1-6.8-3.4-10.8-3.4-10.6 0-19.1 8.6-19.1 19.1 0 10.6 8.6 19.1 19.1 19.1S97 208.5 97 197.9c0-4.8-1.8-9.2-4.7-12.6l16.9-16.9-3.4-3.3zM156.6 124.1L191 89.9c3.3 2.3 7.3 3.7 11.6 3.7 11.1 0 20.1-9 20.1-20.1s-9-20.1-20.1-20.1-20.1 9-20.1 20.1c0 5.1 1.9 9.8 5.1 13.3l-34.2 34 3.2 3.3z"/>
</svg>