<svg id="Layer_1" xmlns="http://www.w3.org/2000/svg" viewBox="0 0 300 300">
    <style>.ldap0{fill:#7C8288;} .ldap1{fill:#A8AAAE;}</style>
    <path class="ldap0" d="M124.5 194.8h-21.9c-1.2 0-2-.9-2-2v-17.9c0-1.4-1.2-2.5-2.5-2.5-1.4 0-2.5 1.2-2.5 2.5v17.9c0 1.2-.9 2-2 2h-22c-1.4 0-2.5 1.2-2.5 2.5v21.3c0 1.4 1.2 2.5 2.5 2.5 1.4 0 2.5-1.2 2.5-2.5v-16.8c0-1.2.9-2 2-2H120c1.2 0 2 .9 2 2v16.8c0 1.4 1.2 2.5 2.5 2.5 1.4 0 2.5-1.2 2.5-2.5v-21.3c.1-1.3-1.1-2.5-2.5-2.5z"/>
    <path class="ldap0" d="M124.5 223.1c-2.4 0-4.5-2.1-4.5-4.5v-16.8l-21.9-.1H76.2l-.1 16.9c0 2.4-2.1 4.5-4.5 4.5s-4.5-2.1-4.5-4.5v-21.3c0-2.4 2.1-4.5 4.5-4.5h21.9l.1-18c0-2.4 2.1-4.5 4.5-4.5s4.5 2.1 4.5 4.5v17.9l21.9.1c2.4 0 4.5 2.1 4.5 4.5v21.3c0 2.5-2 4.5-4.5 4.5zm-48.3-25.3H120c2.3 0 4 1.8 4 4v16.8c0 .3.3.6.6.6s.6-.3.6-.6v-21.3c0-.3-.3-.6-.6-.6h-21.9c-2.3 0-4-1.8-4-4v-17.9c0-.3-.3-.6-.6-.6s-.6.3-.6.6v17.9c0 2.3-1.8 4-4 4H71.6c-.3 0-.6.3-.6.6v21.3c0 .3.3.6.6.6s.6-.3.6-.6v-16.8c0-2.2 1.8-4 4-4zM228.4 194.8h-21.9c-1.2 0-2-.9-2-2v-17.9c0-1.4-1.2-2.5-2.5-2.5-1.4 0-2.5 1.2-2.5 2.5v17.9c0 1.2-.9 2-2 2h-21.9c-1.4 0-2.5 1.2-2.5 2.5v21.3c0 1.4 1.2 2.5 2.5 2.5 1.4 0 2.5-1.2 2.5-2.5v-16.8c0-1.2.9-2 2-2h43.8c1.2 0 2 .9 2 2v16.8c0 1.4 1.2 2.5 2.5 2.5 1.4 0 2.5-1.2 2.5-2.5v-21.3c0-1.3-1.1-2.5-2.5-2.5z"/>
    <path class="ldap0" d="M228.5 223.1c-2.4 0-4.5-2.1-4.5-4.5v-16.8l-22-.1h-22l-.1 16.9c0 2.4-2.1 4.5-4.5 4.5s-4.5-2.1-4.5-4.5v-21.3c0-2.4 2.1-4.5 4.5-4.5h21.9l.1-18c0-2.4 2.1-4.5 4.5-4.5s4.5 2.1 4.5 4.5v17.9l21.9.1c2.4 0 4.4 1.9 4.6 4.4V218.6c.1 2.5-2 4.5-4.4 4.5zM180 197.8h43.8c2.3 0 4 1.8 4 4v16.8c0 .3.3.6.6.6s.6-.3.6-.6v-21.2c0-.3-.2-.6-.6-.6h-21.9c-2.3 0-4-1.8-4-4v-17.9c0-.3-.3-.6-.6-.6s-.6.3-.6.6v17.9c0 2.3-1.8 4-4 4h-21.9c-.3 0-.6.3-.6.6v21.3c0 .3.3.6.6.6s.6-.3.6-.6v-16.8c0-2.3 1.8-4.1 4-4.1z"/>
    <circle class="ldap1" cx="71.6" cy="232.9" r="14.2"/>
    <path class="ldap0" d="M71.6 249.5c-9.1 0-16.6-7.4-16.6-16.6 0-9.1 7.4-16.6 16.6-16.6 9.1 0 16.5 7.6 16.5 16.6s-7.4 16.6-16.5 16.6zm0-28.3c-6.5 0-11.8 5.3-11.8 11.8 0 6.5 5.3 11.8 11.8 11.8 6.5 0 11.8-5.3 11.8-11.8.1-6.5-5.3-11.8-11.8-11.8z"/>
    <circle class="ldap1" cx="124.5" cy="232.9" r="14.2"/>
    <path class="ldap0" d="M124.5 249.5c-9.1 0-16.5-7.4-16.5-16.5s7.4-16.5 16.5-16.5S141 223.9 141 233c.1 9-7.4 16.5-16.5 16.5zm0-28.3c-6.5 0-11.8 5.3-11.8 11.8s5.3 11.8 11.8 11.8c6.5 0 11.8-5.3 11.8-11.8s-5.3-11.8-11.8-11.8z"/>
    <circle class="ldap1" cx="175.5" cy="232.9" r="14.2"/>
    <path class="ldap0" d="M175.5 249.5c-9.1 0-16.5-7.4-16.5-16.5s7.4-16.5 16.5-16.5S192 223.9 192 233c0 9-7.4 16.5-16.5 16.5zm0-28.3c-6.5 0-11.8 5.3-11.8 11.8s5.3 11.8 11.8 11.8 11.8-5.3 11.8-11.8-5.3-11.8-11.8-11.8z"/>
    <g>
        <circle class="ldap1" cx="228.4" cy="232.9" r="14.2"/>
        <path class="ldap0" d="M228.4 249.5c-9.1 0-16.5-7.4-16.5-16.5s7.4-16.5 16.5-16.5 16.5 7.4 16.5 16.5c0 9-7.4 16.5-16.5 16.5zm0-28.3c-6.5 0-11.8 5.3-11.8 11.8s5.3 11.8 11.8 11.8 11.8-5.3 11.8-11.8-5.3-11.8-11.8-11.8z"/>
    </g>
    <g>
        <path class="ldap0" d="M201.8 119.3h-43.4c-1.6 0-2.9-1.3-2.9-2.9V99.6c0-.3-.2-.5-.5-.5h-4c-.3 0-.5.2-.5.5v16.7c0 1.6-1.3 2.9-2.9 2.9H98c-1.4 0-2.5 1.1-2.5 2.5v20.5c0 1.3 1 2.5 2.3 2.6 1.5.1 2.7-1 2.7-2.5v-16.5c0-.9.7-1.6 1.6-1.6h95.8c.9 0 1.6.7 1.6 1.6v16.4c0 1 .5 2 1.5 2.4 1 .5 2.2.2 2.9-.6.4-.5.7-1.1.6-1.7v-20.6c-.2-1.3-1.3-2.4-2.7-2.4z"/>
        <path class="ldap0" d="M201.9 146.9c-.6 0-1.3-.1-1.9-.4-1.6-.7-2.6-2.4-2.6-4.2v-16h-94.9v16.1c0 1.3-.5 2.5-1.4 3.3-.9.9-2.1 1.3-3.4 1.2-2.3-.2-4.2-2.2-4.2-4.6v-20.5c0-2.5 2-4.5 4.5-4.5h49.6c.5 0 .9-.4.9-.9V99.6c0-1.4 1.1-2.5 2.5-2.5h4.1c1.4 0 2.5 1.1 2.5 2.5v16.7c0 .5.4.9.9.9h43.4c2.5 0 4.5 2 4.5 4.5v20.5c.1 1.1-.3 2.3-1.1 3.1-1 1.1-2.2 1.6-3.4 1.6zm-99.8-24.5h95.8c1.9 0 3.5 1.6 3.5 3.5v16.4c0 .3.1.6.3.7.2.1.5 0 .6-.1.1-.1.1-.2.1-.2v-20.8c0-.3-.2-.6-.6-.6h-43.4c-2.7 0-4.9-2.2-4.9-4.9v-15.2h-1.1v15.2c0 2.7-2.2 4.9-4.9 4.9H98c-.3 0-.6.2-.6.6v20.5c0 .3.2.6.5.6.2 0 .4 0 .5-.1.1-.1.2-.2.2-.4V126c-.1-2.1 1.5-3.6 3.5-3.6z"/>
    </g>
    <g>
        <circle class="ldap1" cx="153" cy="77.2" r="24.9"/>
        <path class="ldap0" d="M153 102.6c-14 0-25.4-11.4-25.4-25.4S139 51.8 153 51.8c14 0 25.4 11.4 25.4 25.4S167 102.6 153 102.6zm0-49.8c-13.5 0-24.4 10.9-24.4 24.4s10.9 24.4 24.4 24.4 24.4-10.9 24.4-24.4-10.9-24.4-24.4-24.4z"/>
        <g>
            <path class="ldap0" d="M153 104.5c-15 0-27.2-12.2-27.2-27.2S138.1 50 153 50c15 0 27.2 12.2 27.2 27.2 0 14.9-12.1 27.3-27.2 27.3zm0-49.9c-12.6 0-22.6 10.2-22.6 22.6s10.2 22.6 22.6 22.6c12.4 0 22.6-10.2 22.6-22.6s-10-22.6-22.6-22.6z"/>
            <path class="ldap0" d="M153 105c-15.3 0-27.7-12.4-27.7-27.7 0-15.3 12.4-27.8 27.7-27.8s27.7 12.4 27.7 27.7c0 15.3-12.4 27.8-27.7 27.8zm0-54.5c-14.7 0-26.7 12-26.7 26.8 0 14.7 12 26.7 26.7 26.7s26.7-12 26.7-26.8c0-14.7-12-26.7-26.7-26.7zm0 49.8c-12.7 0-23.1-10.4-23.1-23.1s10.4-23.1 23.1-23.1c12.7 0 23.1 10.4 23.1 23.1s-10.3 23.1-23.1 23.1zm0-45.2c-12.2 0-22.1 9.9-22.1 22.1s9.9 22.1 22.1 22.1 22.1-9.9 22.1-22.1-9.9-22.1-22.1-22.1z"/>
        </g>
    </g>
    <g>
        <circle class="ldap1" cx="98.1" cy="158.7" r="17.3"/>
        <path class="ldap0" d="M98.1 178.4c-10.8 0-19.8-8.8-19.8-19.8 0-10.8 8.8-19.8 19.8-19.8s19.8 8.8 19.8 19.8c-.2 11-9 19.8-19.8 19.8zm0-34.4c-8.1 0-14.8 6.6-14.8 14.8 0 8.1 6.6 14.8 14.8 14.8 8.1 0 14.8-6.6 14.8-14.8 0-8.3-6.7-14.8-14.8-14.8z"/>
    </g>
    <g>
        <circle class="ldap1" cx="202" cy="158.7" r="17.3"/>
        <path class="ldap0" d="M202 178.4c-10.8 0-19.8-8.8-19.8-19.8 0-10.8 8.8-19.8 19.8-19.8 10.8 0 19.8 8.8 19.8 19.8-.1 11-8.9 19.8-19.8 19.8zm0-34.4c-8.1 0-14.8 6.6-14.8 14.8 0 8.1 6.6 14.8 14.8 14.8 8.1 0 14.8-6.6 14.8-14.8 0-8.3-6.7-14.8-14.8-14.8z"/>
    </g>
</svg>