<svg xmlns="http://www.w3.org/2000/svg" viewBox="0 0 300 300">
    <defs>
        <style>.iconLdap2SVG{fill:#7c8288;}</style>
    </defs>
    <title>carbon-icons</title>
    <path class="iconLdap2SVG" d="M226.78 187.77a5.7 5.7 0 0 0 5.72-5.7v-13.16a18.75 18.75 0 0 0-18.74-18.71h-57.07v-9.56a5.7 5.7 0 0 0-11.41 0v9.56h-57.1a18.73 18.73 0 0 0-18.71 18.71v13.16a5.71 5.71 0 0 0 11.42 0v-13.16a7.31 7.31 0 0 1 7.29-7.3h57.1v15.5a5.7 5.7 0 0 0 11.41 0v-15.5h57.07a7.32 7.32 0 0 1 7.33 7.3v13.16a5.69 5.69 0 0 0 5.69 5.7zM90.11 226.15c6.07 0 11-4.09 11-9.08v-13.86c0-5-4.89-9.06-11-9.06H61c-6 0-11 4-11 9.06v13.86c0 5 4.91 9.08 11 9.08h29.11zM136.43 194.15c-6 0-10.94 4-10.94 9.06v13.86c0 5 4.91 9.08 10.94 9.08h29.08c6 0 11-4.09 11-9.08v-13.86c0-5-4.91-9.06-11-9.06h-29.08zM239.14 194.15h-29.06c-6.07 0-10.94 4.07-10.94 9.06v13.86c0 5 4.87 9.08 10.94 9.08h29.06c6.06 0 11-4.09 11-9.08v-13.86c-.04-4.99-4.93-9.06-11-9.06zM185.47 129.11c6.86 0 12.41-4.71 12.41-10.52V84.35c0-5.8-5.55-10.5-12.41-10.5h-69c-6.86 0-12.41 4.7-12.41 10.5v34.24c0 5.81 5.55 10.52 12.41 10.52h69z"/>
</svg>