<svg xmlns="http://www.w3.org/2000/svg" viewBox="0 0 300 300">
    <style>.iconVisualToolsSVG0{fill:#7C8288;} .iconVisualToolsSVG1{fill:#BABCBE;}</style>
    <path class="iconVisualToolsSVG0" d="M168.7 148.4c0 10.3-8.4 18.6-18.7 18.6-10.4 0-18.7-8.3-18.7-18.6s8.4-18.6 18.7-18.6c10.4 0 18.7 8.4 18.7 18.6z"/>
    <title>Group 4</title>
    <path class="iconVisualToolsSVG1" d="M250 149.6v-.2-.1-.2-.2c-.3-1.6-1-3-2.1-4.2-6.4-7.7-14-14.5-21.7-20.8-16.6-13.5-35.6-24.7-56.6-29.2-12.1-2.6-24.3-2.7-36.5-.5-11.1 2-21.8 6.2-31.8 11.4-15.7 8.1-30 19.3-42.4 31.9-2.3 2.3-4.6 4.7-6.7 7.2-2.8 3.4-2.8 7.3 0 10.7 6.4 7.7 14 14.5 21.7 20.8 16.6 13.5 35.6 24.7 56.6 29.2 12.1 2.6 24.3 2.7 36.5.5 11.1-2 21.8-6.2 31.8-11.4 15.6-8.1 29.9-19.3 42.4-31.9 2.3-2.3 4.6-4.7 6.7-7.2 1.1-1.1 1.8-2.6 2.1-4.2v-.2-.2-.1-.3-.4-.4zm-100 36.1c-20.7 0-37.5-16.7-37.5-37.2 0-20.6 16.8-37.2 37.5-37.2s37.5 16.7 37.5 37.2c0 20.5-16.8 37.2-37.5 37.2z"/>
</svg>