<svg xmlns="http://www.w3.org/2000/svg" viewBox="0 0 305.001 305.001">
    <style>.iconJavaSVG{fill:#7C8288;}</style>
    <path class="iconJavaSVG" d="M150.99 56.513c-14.093 9.912-30.066 21.147-38.624 39.734-14.865 32.426 30.418 67.798 32.353 69.288.45.347.98.52 1.52.52.57 0 1.14-.196 1.6-.584.9-.75 1.15-2.02.61-3.06-.17-.31-16.42-31.89-15.82-54.54.21-7.88 11.25-16.83 22.94-26.31 10.703-8.68 22.84-18.51 29.94-30.02 15.59-25.33-1.736-50.23-1.91-50.48-.69-.96-1.96-1.31-3.048-.84-1.087.48-1.688 1.65-1.44 2.81.035.17 3.404 16.64-5.97 33.6-3.863 7.01-12.348 12.98-22.174 19.89z"/>
    <path class="iconJavaSVG" d="M210.365 67.682c.994-.75 1.286-2.115.684-3.205-.61-1.09-1.92-1.57-3.08-1.13-2.4.91-58.63 22.586-58.63 48.777 0 18.053 7.71 27.59 13.34 34.556 2.21 2.73 4.11 5.09 4.74 7.104 1.77 5.804-2.42 16.294-4.19 19.846-.51 1.022-.26 2.26.602 3.005.467.403 1.05.607 1.634.607.497 0 .996-.148 1.427-.448.967-.673 23.63-16.696 19.565-36-1.517-7.338-5.12-12.7-8.305-17.43-4.93-7.33-8.49-12.625-3.09-22.404 6.33-11.404 34.986-33.06 35.275-33.278z"/>
    <path class="iconJavaSVG" d="M63.99 177.66c-.964 2.884-.51 5.75 1.315 8.282 6.096 8.462 27.688 13.123 60.802 13.123h.004c4.49 0 9.23-.088 14.08-.262 52.95-1.896 72.58-18.39 73.39-19.09.89-.764 1.12-2.037.57-3.067-.55-1.03-1.73-1.546-2.86-1.235-18.64 5.1-53.46 6.9-77.61 6.9-27.02 0-40.78-1.94-44.15-3.38 1.73-2.37 12.39-6.61 25.61-9.21 1.267-.25 2.13-1.41 2.01-2.69-.124-1.28-1.2-2.26-2.49-2.26-7.744.01-46.59.63-50.65 12.9zm177.158-16.987c-10.92 0-21.275 5.472-21.71 5.705-1.01.54-1.523 1.7-1.246 2.81.278 1.112 1.277 1.893 2.423 1.894.232 0 23.293.19 25.382 13.365 1.85 11.367-21.82 29.785-31.097 35.923-1.002.663-1.39 1.945-.926 3.052.395.943 1.314 1.533 2.304 1.533.173 0 .348-.018.522-.056 2.202-.47 53.855-11.86 48.394-41.93-3.332-18.43-14.916-22.3-24.046-22.3zm-35.423 56.017c.18-.964-.22-1.944-1.023-2.506l-12.385-8.675c-.604-.43-1.367-.56-2.076-.37-.12.03-13.08 3.44-31.88 5.52-7.46.83-15.82 1.28-24.17 1.28-18.8 0-31.09-2.21-32.88-3.83-.23-.46-.16-.66-.12-.78.33-.91 2.07-1.98 3.19-2.41 1.24-.46 1.91-1.81 1.53-3.08s-1.69-2.01-2.98-1.7c-12.42 2.996-18.5 7.19-18.05 12.46.788 9.342 22.43 14.14 40.728 15.41 2.63.18 5.477.27 8.456.27h.006c30.427 0 69.43-9.547 69.82-9.644.95-.235 1.68-1.004 1.86-1.968zm-93.375 20.055c.94-.61 1.355-1.77 1.022-2.838-.332-1.068-1.33-1.77-2.453-1.755-1.67.044-16.3.704-17.32 10.017-.31 2.78.48 5.32 2.37 7.55 5.25 6.22 19.43 9.92 43.33 11.31 2.83.17 5.7.25 8.54.25 30.39 0 50.85-9.52 51.71-9.92.83-.4 1.38-1.21 1.43-2.13.05-.92-.41-1.79-1.2-2.27l-15.65-9.56c-.55-.33-1.2-.44-1.82-.318-.1.02-10.038 2.083-25.036 4.12-2.84.385-6.39.58-10.56.58-14.98 0-31.647-2.447-34.84-4.05-.05-.3.01-.68.46-1.01z"/>
    <path class="iconJavaSVG" d="M133.68 290.018c69.61-.06 106.972-12.438 114.17-20.228 2.547-2.757 2.822-5.366 2.605-7.07-.535-4.194-4.354-6.76-4.788-7.04-1.045-.672-2.447-.496-3.262.444-.813.94-.832 2.314-.016 3.253.43.565.69 1.51-.6 2.795-2.88 2.687-31.9 10.844-80.22 13.294-6.62.345-13.56.52-20.64.52-43.264 0-74.925-5.925-79.08-9.38 1.602-2.3 12.8-5.978 24.71-8.057 1.342-.24 2.25-1.5 2.04-2.85-.207-1.35-1.448-2.28-2.804-2.1-.336.04-1.475.11-2.796.19-19.65 1.2-42.36 3.87-43.545 14-.36 3.08.554 5.88 2.723 8.32C47.49 282.07 62.745 290 133.66 290l.005.002z"/>
    <path class="iconJavaSVG" d="M261.522 271.985c-.984-.455-2.146-.225-2.88.567-.104.11-10.57 11.054-42.036 17.48-12.047 2.414-34.66 3.638-67.21 3.638-32.613 0-63.644-1.283-63.954-1.296-1.296-.063-2.405.88-2.58 2.155-.178 1.27.644 2.47 1.896 2.77.323.07 32.844 7.69 77.31 7.69 21.327 0 42.08-1.74 61.684-5.15 36.553-6.41 39.112-24.54 39.203-25.31.127-1.078-.45-2.11-1.433-2.567z"/>
</svg>