<svg xmlns="http://www.w3.org/2000/svg" viewBox="0 0 300 300">
    <defs>
        <style>.iconOpenBookSVG{fill:#7c8288;fill-rule:evenodd;}</style>
    </defs>
    <title>carbon-icons</title>
    <path class="iconOpenBookSVG" d="M59.58 105.2h3.87l-3.71 90.06a12.19 12.19 0 0 0 1.19 6.38 10.4 10.4 0 0 0 6 5.21h.12c15.2 5.3 29.48 2.47 43-.2 13.14-2.61 25.35-5 34 2.79a8.68 8.68 0 0 0 11.84 0c8.69-7.82 20.9-5.39 34-2.79 13.47 2.67 27.75 5.5 42.95.2h.12a10.42 10.42 0 0 0 6-5.21 12.15 12.15 0 0 0 1.21-6.37l-3.71-90.06h3.87a5.06 5.06 0 0 1 5 5L250 211.33a4.89 4.89 0 0 1-5 5H55a4.89 4.89 0 0 1-5-5l4.63-101.18a5 5 0 0 1 5-5zm106 3.47a2.88 2.88 0 0 0 .75 5.72c6.1-.81 13.59.74 21.61 2.4 10 2.07 20.72 4.29 31.42 2.69a2.89 2.89 0 0 0-.84-5.72c-9.74 1.46-20-.66-29.44-2.62-8.51-1.76-16.46-3.41-23.51-2.47zm0 16.2a2.88 2.88 0 0 0 .75 5.72c6.1-.81 13.59.74 21.61 2.4 10 2.07 20.72 4.29 31.42 2.69a2.89 2.89 0 1 0-.84-5.72c-9.74 1.46-20-.66-29.44-2.63-8.51-1.76-16.46-3.41-23.51-2.47zm0 16.2a2.88 2.88 0 1 0 .75 5.72c6.1-.81 13.59.74 21.61 2.41 10 2.07 20.72 4.29 31.42 2.69a2.89 2.89 0 0 0-.84-5.72c-9.74 1.46-20-.66-29.44-2.62-8.51-1.76-16.46-3.41-23.51-2.47zm0 16.2a2.88 2.88 0 0 0 .75 5.72c6.1-.81 13.59.74 21.61 2.4 10 2.07 20.72 4.29 31.42 2.69a2.89 2.89 0 1 0-.84-5.72c-9.74 1.46-20-.66-29.44-2.63-8.51-1.76-16.46-3.41-23.51-2.47zm0 16.2a2.88 2.88 0 1 0 .75 5.72c6.1-.81 13.59.74 21.61 2.4 10 2.07 20.72 4.29 31.42 2.69a2.89 2.89 0 0 0-.84-5.72c-9.74 1.46-20-.66-29.44-2.62-8.51-1.76-16.46-3.41-23.51-2.47zm-31.25-64.8c-7-.94-15 .71-23.51 2.47-9.48 2-19.69 4.08-29.44 2.62a2.89 2.89 0 0 0-.84 5.72c10.71 1.6 21.45-.62 31.42-2.69 8-1.66 15.52-3.22 21.62-2.4a2.88 2.88 0 0 0 .74-5.72zm0 16.2c-7-.94-15 .71-23.51 2.47-9.48 2-19.69 4.08-29.44 2.63a2.89 2.89 0 0 0-.84 5.72C91.3 137.28 102 135.05 112 133c8-1.66 15.52-3.22 21.62-2.4a2.88 2.88 0 0 0 .74-5.72zm0 16.2c-7-.94-15 .71-23.51 2.47-9.48 2-19.69 4.08-29.44 2.62a2.89 2.89 0 0 0-.84 5.72c10.71 1.6 21.45-.62 31.42-2.69 8-1.66 15.52-3.22 21.62-2.41a2.88 2.88 0 1 0 .74-5.72zm0 16.2c-7-.94-15 .71-23.51 2.47-9.48 2-19.69 4.08-29.44 2.63a2.89 2.89 0 0 0-.84 5.72c10.71 1.6 21.45-.62 31.42-2.69 8-1.66 15.52-3.22 21.62-2.4a2.88 2.88 0 0 0 .74-5.72zm0 16.2c-7-.94-15 .71-23.51 2.47-9.48 2-19.69 4.08-29.44 2.62a2.89 2.89 0 0 0-.84 5.72c10.71 1.6 21.45-.62 31.42-2.69 8-1.66 15.52-3.22 21.62-2.4a2.88 2.88 0 1 0 .74-5.72zm14.86 30.27a1 1 0 0 0 1.54 0c21.14-19 50.48 6 79.61-4.12 1.81-.67 2.3-1.94 2.19-4l-3.93-95.49c-.19-3.79-1.89-4.86-5.87-3.93-23.54 5.65-49-11-64.06-1.88-3.58 2.43-4.78 6.48-4.94 11.35l-2.35 72.77a1.43 1.43 0 1 1-2.84 0l-2.35-72.77c-.16-4.87-1.36-8.93-4.94-11.35-15-9.1-40.52 7.53-64.06 1.88-4-.93-5.68.14-5.87 3.93l-3.93 95.49c-.1 2 .38 3.3 2.19 4 29.17 10.14 58.52-14.9 79.65 4.11z"/>
</svg>