<svg id="iconDockerSVG" xmlns="http://www.w3.org/2000/svg" viewBox="0 0 300 300">
    <style>.iconDockerSVG0{fill:#7C8288;} .iconDockerSVG1{fill:#91959A;} .iconDockerSVG2{fill:#A8AAAE;} .iconDockerSVG3{fill:#FFFFFF;} .iconDockerSVG4{fill:#DCDCDD;}</style>
    <title>carbon-icons</title>
    <path id="iconDockerSVG-2" class="iconDockerSVG0" d="M198.1 223.3c4.5-3.8 9-7.7 13.5-11.6 1.5-1.3 3.2-2.7 4.7-4.1-1.4-1.5-3.1-2.6-5-3.3-3.3-1.3-7.1-.9-10.1 1-4.2 2.4-6 6.3-5.8 11.1 0 1.9.6 3.7 1.6 5.3.3.6.6 1.1 1.1 1.6m5.2 3.7c2.3.7 4.7.8 7 .3 1.2-.5 4.1-1.8 5.2-1.6h.2l.2.1c.7.3 1.3.8 1.6 1.4.8 1.4.4 3.2-1 4-.1 0-.1.1-.2.1l-.5.3c-5.8 3.3-11.9 2.9-17.6-.2-2.7-1.5-4.9-3.7-6.4-6.4l-.4-.6c-3.7-6.4-3.2-13.1 1-19.2 1.4-2.1 3.3-3.8 5.5-5l.8-.5c5.4-3.1 11.2-2.9 16.8-.2 3 1.4 5.4 3.7 7.1 6.6l.3.5c1.2 2.1-.4 3.9-2 5.2-1.9 1.4-3.8 3.2-5.6 4.8l-12 10.4zm43.1-29.1h.6c1.6-.1 2.9 1.1 3 2.7v.3c0 2.5-2.4 3.2-4.5 3.2-2.7 0-5.3 1.6-7.2 3.5-2.3 2.2-3.5 5.3-3.4 8.5v14.7c.1 1.5-1 2.9-2.5 3h-.8c-1.5 0-2.8-1.2-2.8-2.8v-15.8c0-5.7 2.9-11.1 7.7-14.2 3-2 6.4-3.1 9.9-3.1zm-75.6 10.4c2.3-2.3 4.7-4.7 7.1-7 .7-.6 3.2-3.4 4.2-3.4H183.3c1.4.1 2.4 1.3 2.4 2.6v.6c0 1-1.2 2.2-1.8 2.9-1.4 1.5-2.9 2.9-4.3 4.3l-7.3 7.4c3.2 3.2 6.3 6.3 9.4 9.5.9.9 1.7 1.8 2.6 2.7.4.3.7.7 1 1.2.3.4.4.9.4 1.4v.7c-.2 1.4-1.3 2.5-2.7 2.5h-.5c-1 0-2.1-1.2-2.8-1.8-1.4-1.3-2.8-2.7-4.2-4.1l-4.6-4.6v7.3c.1 1.5-1 2.9-2.5 3h-.8c-1.5 0-2.8-1.2-2.8-2.8v-41.4c-.1-1.5 1-2.9 2.6-3h.7c1.5 0 2.8 1.2 2.8 2.8v.2l-.1 19zm-19.7-4.1c-1.2-.4-2.4-.6-3.6-.6-5.1-.2-8.7 2.7-10.9 7.1-.7 1.5-1.1 3.2-1.1 4.9 0 5.2 2.7 8.8 7.4 11 1.8.7 3.8 1.1 5.8 1 1.9-.2 3.7-.8 5.4-1.7l.3-.1h1.3c1.4.1 2.4 1.3 2.4 2.6v.6c0 3.7-6.7 4.5-9.3 4.7-9.1.6-15.9-4.4-18.5-13-.4-1.5-.7-3-.7-4.6V215c-.1-6.3 3.3-12.1 8.8-15.1 2.6-1.5 5.6-2.3 8.6-2.3h1.2c3.2 0 6.3.9 8.9 2.7l.2.1.1.2c.3.5.5 1 .5 1.6v.6c0 1.4-1.1 2.6-2.6 2.6h-.5c-1.2-.1-2.5-.6-3.7-1.2zm-55.2 11.5c0 4.6 2.3 8.1 6.2 10.4 1.8 1.1 3.9 1.7 6 1.6 4.6 0 7.9-2.3 10.3-6.2 1.1-1.8 1.7-3.9 1.6-6 0-4.1-2.1-7.8-5.6-9.9-1.9-1.3-4.1-2-6.4-2-5.1 0-8.7 2.6-10.9 7.1-.9 1.6-1.3 3.3-1.2 5zm11.4-18h.8c7 0 12.4 3.5 15.7 9.5 1.4 2.4 2.1 5.2 2.1 7.9v1.2c.1 6.3-3.4 12.1-8.9 15.1-2.6 1.5-5.6 2.3-8.6 2.3h-1.2c-6.3.1-12.1-3.4-15.1-8.9-1.5-2.6-2.3-5.6-2.3-8.6V215c-.1-6.3 3.4-12.1 8.9-15.1 2.7-1.5 5.7-2.2 8.6-2.2zm-51.1 18c-.1 4.5 2.4 8.6 6.5 10.6 1.7.9 3.5 1.4 5.4 1.4 4.4.1 8.4-2.3 10.5-6.1 1.1-1.8 1.6-3.9 1.6-6 0-3.9-2-7.6-5.3-9.7-1.9-1.4-4.3-2.2-6.7-2.2-5.1 0-8.7 2.6-10.9 7.1-.7 1.6-1.1 3.2-1.1 4.9zm24-13.5v-12.8c-.1-1.5 1-2.9 2.5-3h.8c1.5 0 2.8 1.3 2.8 2.8V216.3c.1 6.3-3.4 12.1-8.9 15.1-2.6 1.5-5.5 2.3-8.6 2.3h-1.2c-6.3.1-12.1-3.4-15.1-8.9-1.5-2.6-2.3-5.6-2.3-8.6V215c-.1-6.3 3.3-12.1 8.8-15.2 2.6-1.5 5.6-2.3 8.6-2.3h1.2c4.2.2 8.3 1.8 11.4 4.7z"/>
    <path id="outline" class="iconDockerSVG0" d="M165.4 101.9h17.9v18.3h9c4.2 0 8.4-.7 12.4-2.1 2.1-.7 4.1-1.6 6-2.7-2.4-3.4-3.9-7.4-4.2-11.6-.5-5.6.6-12.8 4.4-17.3l1.9-2.2 2.2 1.8c5.6 4.5 10.4 10.9 11.2 18.1 6.8-2 14.8-1.5 20.7 1.9l2.5 1.4-1.3 2.5c-5.1 9.9-15.7 12.9-26 12.4-15.5 38.6-49.2 56.8-90.1 56.8-21.1 0-40.5-7.9-51.5-26.6l-.2-.3-1.6-3.3c-3.6-8.3-5.1-17.3-4.1-26.3l.3-2.7h15.3v-18.3h17.9V84h35.8V66.1h21.5v35.8z"/>
    <g id="body_colors">
        <path class="iconDockerSVG1" d="M223.3 108.6c1.2-9.3-5.8-16.6-10.1-20.1-5 5.8-5.8 20.9 2.1 27.2-4.4 3.9-13.6 7.4-23 7.4H77.7c-1 9.2.7 18.4 4.8 26.6l1.3 2.4c.8 1.4 1.7 2.8 2.7 4.1 4.7.3 9.1.4 13 .3 7.8-.2 14.2-1.2 19-2.8.7-.2 1.5.3 1.7 1 .2.6-.2 1.3-.8 1.6-.6.2-1.3.4-2 .6-4.3 1.2-8.7 1.9-13.1 2.1H103.4c-2.1.1-4.3.1-6.6.1-2.5 0-5 0-7.7-.2H89c9.5 10.7 24.5 17.2 43.2 17.2 39.6 0 73.2-17.6 88.1-57 10.6 1.1 20.7-1.6 25.3-10.6-7.4-4-16.8-2.6-22.3.1z"/>
        <path class="iconDockerSVG2" d="M223.3 108.6c1.2-9.3-5.8-16.6-10.1-20.1-5 5.8-5.8 20.9 2.1 27.2-4.4 3.9-13.6 7.4-23 7.4H84.4c-.5 15.1 5.1 26.5 15 33.4 7.8-.2 14.2-1.2 19-2.8.7-.2 1.5.3 1.7 1 .2.6-.2 1.3-.8 1.6-.6.2-1.3.4-2 .6-4.4 1.2-8.9 2-13.4 2.3l-.1-.1c13.5 6.9 33 6.9 55.5-1.7 25.1-9.7 48.5-28.1 64.8-49.1l-.8.3z"/>
        <path class="iconDockerSVG1" d="M77.9 135.1c.7 5.1 2.2 10.1 4.5 14.7l1.3 2.4c.8 1.4 1.7 2.8 2.7 4.1 4.7.3 9.1.4 13 .3 7.8-.2 14.2-1.2 19-2.8.7-.2 1.5.3 1.7 1 .2.6-.2 1.3-.8 1.6-.6.2-1.3.4-2 .6-4.4 1.2-8.9 1.9-13.5 2.2h-.7c-2.1.1-4.3.2-6.6.2-2.5 0-5.1 0-7.8-.2 9.5 10.7 24.6 17.3 43.3 17.3 33.9 0 63.4-12.9 80.5-41.3l-134.6-.1z"/>
        <path class="iconDockerSVG2" d="M85.5 135.1c1.7 8.7 6.7 16.4 14 21.5 7.8-.2 14.2-1.2 19-2.8.7-.2 1.5.3 1.7 1 .2.6-.2 1.3-.8 1.6-.6.2-1.3.4-2 .6-4.4 1.2-9 1.9-13.6 2.2 13.5 6.9 33 6.8 55.4-1.8 13.8-5.4 26.8-13 38.3-22.3h-112z"/>
    </g>
    <path class="iconDockerSVG1" d="M93.2 104.8v15.6h15.5v-15.5H93.4zM111.1 87v15.5h15.7V87h-15.5zM111.1 104.8v15.6h15.7v-15.5h-15.5zM129 104.8v15.6h15.5v-15.5h-15.3zM129 87v15.5h15.5V87h-15.3zM146.9 104.8v15.6h15.7v-15.5h-15.5zM146.9 87v15.5h15.7V87h-15.5zM146.9 69.1v15.5h15.7V69.1h-15.5zM165 104.9l-.2-.1v15.6h15.7v-15.5z"/>
    <path class="iconDockerSVG3" d="M125.6 145.5c2.4 0 4.3 1.9 4.3 4.3s-1.9 4.3-4.3 4.3-4.3-1.9-4.3-4.3 2-4.3 4.3-4.3"/>
    <path class="iconDockerSVG0" d="M125.6 146.7c.4 0 .8.1 1.2.2-.6.3-.8 1.1-.5 1.7.3.6 1.1.8 1.7.5.2-.1.4-.3.5-.5.6 1.6-.1 3.4-1.7 4-1.6.6-3.4-.1-4-1.7-.6-1.6.1-3.4 1.7-4 .4-.1.8-.2 1.1-.2M50 136.6h199c-4.3-1.2-13.7-2.6-12.2-8.3-7.9 9.1-26.9 6.4-31.7 1.9-5.3 7.7-36.4 4.8-38.6-1.2-6.7 7.9-27.4 7.9-34.1 0-2.2 6-33.3 9-38.6 1.2-4.8 4.5-23.8 7.2-31.7-1.9 1.6 5.7-7.7 7.2-12.1 8.3"/>
    <path class="iconDockerSVG4" d="M137 176.3c-10.6-5-16.4-11.9-19.6-19.3-4.6 1.2-9.4 1.9-14.1 2.1-2.1.1-4.2.2-6.5.2-2.6 0-5.4-.1-8.3-.2 9.7 9.7 21.7 17.2 43.8 17.3 1.5-.1 3.1-.1 4.7-.1z"/>
    <path class="iconDockerSVG3" d="M121.3 163.9c-1.6-2.2-2.9-4.5-3.9-6.9-4.6 1.2-9.4 1.9-14.2 2.1 3.8 2.1 9.2 4 18.1 4.8z"/>
</svg>