<svg id="books" xmlns="http://www.w3.org/2000/svg" viewBox="0 0 300 300">
    <defs>
        <style>.books1{fill:#7c8288;}</style>
    </defs>
    <title>carbon-icons</title>
    <path class="books1" d="M200 124.89c15.91-18.25 31.85-35.61 47.8-53.89 3.1-3.6 1.56-9.1-3.75-10l-86.12-13.8c-9.66-1.9-14.36-.31-20.12 3.77l-76.14 54.89c-6.08 4.41-10.48 10.29-11.73 18a26.55 26.55 0 0 0 10.8 25.92c-5.6 4.32-9.61 10-10.8 17.27a26.55 26.55 0 0 0 10.92 26c-5.66 4.34-9.72 10-10.92 17.36a26.55 26.55 0 0 0 21.91 30.49c36 5.9 85.52 13.85 121.55 19.76 3.44.51 6.07 0 8.36-2.73l46.9-55a4.19 4.19 0 0 0-6.53-5.26L195.7 252 82 233.56a17.7 17.7 0 0 1-1.45-34.64c35 5.71 79.64 12.89 112.84 18.33 3.44.51 6.07 0 8.36-2.73l46.9-55a4.19 4.19 0 1 0-6.53-5.26l-46.43 54.4L82 190.2a17.7 17.7 0 0 1-1.86-34.53c35.06 5.72 79.92 12.94 113.25 18.4 3.44.51 6.07 0 8.36-2.73l46.9-55a4.19 4.19 0 0 0-6.53-5.25L195.7 165.5 82 147a17.7 17.7 0 1 1 5.72-34.93L188 128.51c5.94.96 8.88.1 12-3.62z"/>
</svg>