<svg xmlns="http://www.w3.org/2000/svg" viewBox="0 0 300 300">
	<style>.iconLDPIconsRDFSVG0{fill:#7C8288;} .iconLDPIconsRDFSVG1{fill:#A8AAAE;}</style>
	<path class="iconLDPIconsRDFSVG0" d="M114.7 128.9c-21.1 0-38.2-17.1-38.2-38.2s17.1-38.2 38.2-38.2 38.2 17.1 38.2 38.2-17.2 38.2-38.2 38.2zm0-58.2c-11 0-20 9-20 20s9 20 20 20 20-9 20-20-9-20-20-20zM216.6 188.2c-21.1 0-38.2-17.1-38.2-38.2s17.1-38.2 38.2-38.2 38.2 17.1 38.2 38.2-17.1 38.2-38.2 38.2zm0-58.2c-11 0-20 9-20 20s9 20 20 20 20-9 20-20-9-20-20-20zM114.9 248.7c-21.1 0-38.2-17.1-38.2-38.2s17.1-38.2 38.2-38.2 38.2 17.1 38.2 38.2-17.2 38.2-38.2 38.2zm0-58.2c-11 0-20 9-20 20s9 20 20 20 20-9 20-20-9-20-20-20z"/>
	<path class="st0" d="M105.8 119.8H124v61.6h-18.2zM135.013 187.534l52.458-32.29 9.542 15.498-52.46 32.29zM137.257 114.268l9.948-15.24 51.584 33.67-9.95 15.24z"/>
	<path class="iconLDPIconsRDFSVG1" d="M150 300C67.3 300 0 232.7 0 150S67.3 0 150 0s150 67.3 150 150-67.3 150-150 150zm0-281.8C77.3 18.2 18.2 77.3 18.2 150S77.3 281.8 150 281.8 281.8 222.7 281.8 150 222.7 18.2 150 18.2z"/>
</svg>