<svg width="1348" height="618" viewBox="0 0 1348 618" xmlns="http://www.w3.org/2000/svg" xmlns:xlink="http://www.w3.org/1999/xlink">
    <title>REST Resource Model</title>
    <defs>
        <linearGradient x1="50%" y1="0%" x2="50%" y2="100%" id="u">
            <stop stop-color="#FFF" offset="0%"/>
            <stop stop-color="#DFDFDF" offset="100%"/>
        </linearGradient>
        <rect id="a" x="473" width="166" height="43" rx="8"/>
        <mask id="t" x="0" y="0" width="166" height="43" fill="#fff">
            <use xlink:href="#a"/>
        </mask>
        <rect id="b" x="792" y="31" width="166" height="43" rx="8"/>
        <mask id="v" x="0" y="0" width="166" height="43" fill="#fff">
            <use xlink:href="#b"/>
        </mask>
        <rect id="c" x="980" y="154" width="166" height="43" rx="8"/>
        <mask id="w" x="0" y="0" width="166" height="43" fill="#fff">
            <use xlink:href="#c"/>
        </mask>
        <rect id="d" x="980" y="356" width="166" height="43" rx="8"/>
        <mask id="x" x="0" y="0" width="166" height="43" fill="#fff">
            <use xlink:href="#d"/>
        </mask>
        <rect id="e" x="1181" y="356" width="166" height="43" rx="8"/>
        <mask id="y" x="0" y="0" width="166" height="43" fill="#fff">
            <use xlink:href="#e"/>
        </mask>
        <rect id="f" x="885" y="261" width="166" height="43" rx="8"/>
        <mask id="z" x="0" y="0" width="166" height="43" fill="#fff">
            <use xlink:href="#f"/>
        </mask>
        <rect id="g" x="186" y="155" width="166" height="43" rx="8"/>
        <mask id="A" x="0" y="0" width="166" height="43" fill="#fff">
            <use xlink:href="#g"/>
        </mask>
        <rect id="h" x="699" y="445" width="166" height="43" rx="8"/>
        <mask id="B" x="0" y="0" width="166" height="43" fill="#fff">
            <use xlink:href="#h"/>
        </mask>
        <rect id="i" x="572" y="155" width="166" height="43" rx="8"/>
        <mask id="C" x="0" y="0" width="166" height="43" fill="#fff">
            <use xlink:href="#i"/>
        </mask>
        <rect id="j" x="572" y="268" width="166" height="43" rx="8"/>
        <mask id="D" x="0" y="0" width="166" height="43" fill="#fff">
            <use xlink:href="#j"/>
        </mask>
        <rect id="k" y="155" width="166" height="43" rx="8"/>
        <mask id="E" x="0" y="0" width="166" height="43" fill="#fff">
            <use xlink:href="#k"/>
        </mask>
        <rect id="l" x="770" y="154" width="166" height="43" rx="8"/>
        <mask id="F" x="0" y="0" width="166" height="43" fill="#fff">
            <use xlink:href="#l"/>
        </mask>
        <rect id="m" x="881" y="442" width="166" height="43" rx="8"/>
        <mask id="G" x="0" y="0" width="166" height="43" fill="#fff">
            <use xlink:href="#m"/>
        </mask>
        <rect id="n" x="372" y="155" width="166" height="43" rx="8"/>
        <mask id="H" x="0" y="0" width="166" height="43" fill="#fff">
            <use xlink:href="#n"/>
        </mask>
        <rect id="o" x="1075" y="261" width="166" height="43" rx="8"/>
        <mask id="I" x="0" y="0" width="166" height="43" fill="#fff">
            <use xlink:href="#o"/>
        </mask>
        <rect id="p" x="699" y="575" width="166" height="43" rx="8"/>
        <mask id="J" x="0" y="0" width="166" height="43" fill="#fff">
            <use xlink:href="#p"/>
        </mask>
        <rect id="q" x="881" y="575" width="166" height="43" rx="8"/>
        <mask id="K" x="0" y="0" width="166" height="43" fill="#fff">
            <use xlink:href="#q"/>
        </mask>
        <rect id="r" x="1072" y="575" width="182" height="43" rx="8"/>
        <mask id="L" x="0" y="0" width="182" height="43" fill="#fff">
            <use xlink:href="#r"/>
        </mask>
        <rect id="s" x="186" y="265" width="166" height="43" rx="8"/>
        <mask id="M" x="0" y="0" width="166" height="43" fill="#fff">
            <use xlink:href="#s"/>
        </mask>
    </defs>
    <g fill="none" fill-rule="evenodd">
        <path d="M967.5 466.5l185 127M967.5 466.5l-187 130M266.5 177.5v124M1158.5 284.5l-93 93M1060.5 179.5l-94 104M1060.5 179.5l98 103M1158.5 284.5l104 91M553.5 22.5l-470 147M553.5 22.5l-96 153M553.5 22.5l97 153M553.5 22.5l301 150M553.5 22.5l502 147M553.5 22.5l-286 147M653.5 179.5v111M963.5 289.5v307M963.5 289.5l-181 175" stroke="#979797" stroke-linecap="square"/>
        <use stroke="#979797" mask="url(#t)" stroke-width="2" fill="url(#u)" xlink:href="#a"/>
        <use stroke="#979797" mask="url(#v)" stroke-width="2" fill="url(#u)" xlink:href="#b"/>
        <use stroke="#979797" mask="url(#w)" stroke-width="2" fill="url(#u)" xlink:href="#c"/>
        <use stroke="#979797" mask="url(#x)" stroke-width="2" fill="url(#u)" xlink:href="#d"/>
        <g stroke="#979797">
            <use mask="url(#y)" stroke-width="2" fill="url(#u)" xlink:href="#e"/>
            <use xlink:href="#e"/>
        </g>
        <use stroke="#979797" mask="url(#z)" stroke-width="2" fill="url(#u)" xlink:href="#f"/>
        <use stroke="#979797" mask="url(#A)" stroke-width="2" fill="url(#u)" xlink:href="#g"/>
        <use stroke="#979797" mask="url(#B)" stroke-width="2" fill="url(#u)" xlink:href="#h"/>
        <use stroke="#979797" mask="url(#C)" stroke-width="2" fill="url(#u)" xlink:href="#i"/>
        <use stroke="#979797" mask="url(#D)" stroke-width="2" fill="url(#u)" xlink:href="#j"/>
        <use stroke="#979797" mask="url(#E)" stroke-width="2" fill="url(#u)" xlink:href="#k"/>
        <use stroke="#979797" mask="url(#F)" stroke-width="2" fill="url(#u)" xlink:href="#l"/>
        <use stroke="#979797" mask="url(#G)" stroke-width="2" fill="url(#u)" xlink:href="#m"/>
        <use stroke="#979797" mask="url(#H)" stroke-width="2" fill="url(#u)" xlink:href="#n"/>
        <text font-family="Helvetica" font-size="16" fill="#000">
            <tspan x="514.211" y="27">RDFSource</tspan>
        </text>
        <text font-family="Helvetica" font-size="16" fill="#000">
            <tspan x="816.977" y="58">AccessControlList</tspan>
        </text>
        <text font-family="Helvetica" font-size="16" fill="#000">
            <tspan x="1027.813" y="181">Container</tspan>
        </text>
        <text font-family="Helvetica" font-size="16" fill="#000">
            <tspan x="913.25" y="288">BasicContainer</tspan>
        </text>
        <text font-family="Helvetica" font-size="16" fill="#000">
            <tspan x="1007.422" y="383">DirectContainer</tspan>
        </text>
        <use stroke="#979797" mask="url(#I)" stroke-width="2" fill="url(#u)" xlink:href="#o"/>
        <text font-family="Helvetica" font-size="16" fill="#000">
            <tspan x="1114.48" y="288">AccessPoint</tspan>
        </text>
        <text font-family="Helvetica" font-size="16" fill="#7B7B7B">
            <tspan x="1203.078" y="383">IndirectContainer</tspan>
        </text>
        <text font-family="Helvetica" font-size="16" fill="#000">
            <tspan x="743.363" y="472">Application</tspan>
        </text>
        <text font-family="Helvetica" font-size="16" fill="#000">
            <tspan x="248.094" y="182">Agent</tspan>
        </text>
        <text font-family="Helvetica" font-size="16" fill="#000">
            <tspan x="424.813" y="182">AppRole</tspan>
        </text>
        <use stroke="#979797" mask="url(#J)" stroke-width="2" fill="url(#u)" xlink:href="#p"/>
        <use stroke="#979797" mask="url(#K)" stroke-width="2" fill="url(#u)" xlink:href="#q"/>
        <use stroke="#979797" mask="url(#L)" stroke-width="2" fill="url(#u)" xlink:href="#r"/>
        <text font-family="Helvetica" font-size="16" fill="#000">
            <tspan x="951.102" y="469">Job</tspan>
        </text>
        <text font-family="Helvetica" font-size="16" fill="#000">
            <tspan x="819.367" y="181">Execution</tspan>
        </text>
        <text font-family="Helvetica" font-size="16" fill="#000">
            <tspan x="42.039" y="182">LDAPServer</tspan>
        </text>
        <text font-family="Helvetica" font-size="16" fill="#000">
            <tspan x="42.039" y="182">LDAPServer</tspan>
        </text>
        <text font-family="Helvetica" font-size="16" fill="#000">
            <tspan x="584.301" y="182">RDFRepresentation</tspan>
        </text>
        <text font-family="Helvetica" font-size="16" fill="#000">
            <tspan x="628.316" y="295">Backup</tspan>
        </text>
        <use stroke="#979797" mask="url(#M)" stroke-width="2" fill="url(#u)" xlink:href="#s"/>
        <text font-family="Helvetica" font-size="16" fill="#000">
            <tspan x="227.285" y="292">LDAPAgent</tspan>
        </text>
        <text font-family="Helvetica" font-size="16" fill="#000">
            <tspan x="720.246" y="602">ImportBackupJob</tspan>
        </text>
        <text font-family="Helvetica" font-size="16" fill="#000">
            <tspan x="901.297" y="602">ExportBackupJob</tspan>
        </text>
        <text font-family="Helvetica" font-size="16" fill="#000">
            <tspan x="1082.215" y="601">ImportLDAPAgentsJob</tspan>
        </text>
    </g>
</svg>